<svg width="1050" height="300" viewBox="0 0 1050 300" fill="none" xmlns="http://www.w3.org/2000/svg">
<path d="M108 151.529C108 197.029 155.25 202 155.25 202H184.5C184.5 202 186.25 202 188.75 200.5C191.25 199 191.25 195.529 191.25 195.529V106.029C191.25 106.029 191.068 103.784 189.5 102.029C187.744 100.062 184.5 100 184.5 100H155.25C155.25 100 108 106.029 108 151.529Z" fill="#FFBC3A"/>
<path d="M225.25 119C225.25 119 232.75 121.5 232.75 129C232.75 136.5 225.25 139 225.25 139H186.25V119H225.25Z" fill="#FFBC3A"/>
<path d="M225.75 163C225.75 163 233.25 165.5 233.25 173C233.25 180.5 225.75 183 225.75 183H186.75V163H225.75Z" fill="#FFBC3A"/>
<path d="M103.529 161.25C149.029 161.25 154 114 154 114V84.7501C154 84.7501 154 83.0001 152.5 80.5001C151 78.0001 147.528 78.0001 147.528 78.0001H58.0285C58.0285 78.0001 55.7844 78.1818 54.0285 79.7501C52.0624 81.506 52 84.7501 52 84.7501V114C52 114 58.0285 161.25 103.529 161.25Z" fill="#324A5F"/>
<path d="M102.471 140C56.9715 140 52 187.25 52 187.25L52 216.5C52 216.5 52 218.25 53.5 220.75C55 223.25 58.4715 223.25 58.4715 223.25H147.971C147.971 223.25 150.216 223.068 151.971 221.5C153.938 219.744 154 216.5 154 216.5V187.25C154 187.25 147.971 140 102.471 140Z" fill="#324A5F"/>
<path d="M311.297 79.5C318.458 79.5 324.611 80.3138 329.754 81.9414C334.962 83.569 339.324 85.6849 342.84 88.2891C346.421 90.8932 349.285 93.8555 351.434 97.1758C353.582 100.431 355.21 103.751 356.316 107.137C357.488 110.522 358.237 113.777 358.562 116.902C358.953 120.027 359.148 122.729 359.148 125.008C359.148 125.984 359.051 127.189 358.855 128.621C358.725 129.988 358.172 131.323 357.195 132.625C356.219 133.927 354.656 135.034 352.508 135.945C350.424 136.857 347.43 137.312 343.523 137.312C342.221 137.312 340.594 137.247 338.641 137.117C336.688 136.922 334.799 136.499 332.977 135.848C331.154 135.132 329.591 134.155 328.289 132.918C326.987 131.616 326.336 129.826 326.336 127.547C326.336 124.031 326.108 120.874 325.652 118.074C325.262 115.275 324.513 112.898 323.406 110.945C322.299 108.992 320.77 107.495 318.816 106.453C316.863 105.411 314.357 104.891 311.297 104.891C308.107 104.891 305.633 105.574 303.875 106.941C302.182 108.243 300.945 109.676 300.164 111.238C299.253 113.126 298.732 115.242 298.602 117.586V179.5C298.732 182.365 299.253 184.871 300.164 187.02C300.945 188.908 302.182 190.633 303.875 192.195C305.633 193.758 308.107 194.539 311.297 194.539C314.357 194.539 316.863 193.921 318.816 192.684C320.77 191.382 322.299 189.656 323.406 187.508C324.513 185.359 325.262 182.885 325.652 180.086C326.108 177.286 326.336 174.357 326.336 171.297C326.336 170.32 326.499 169.311 326.824 168.27C327.15 167.228 327.898 166.284 329.07 165.438C330.242 164.526 331.967 163.777 334.246 163.191C336.525 162.605 339.617 162.312 343.523 162.312C347.43 162.312 350.424 162.768 352.508 163.68C354.656 164.526 356.219 165.535 357.195 166.707C358.172 167.814 358.725 168.921 358.855 170.027C359.051 171.069 359.148 171.753 359.148 172.078C359.148 179.24 357.944 185.652 355.535 191.316C353.126 196.915 349.708 201.668 345.281 205.574C340.919 209.48 335.678 212.475 329.559 214.559C323.504 216.577 316.831 217.586 309.539 217.586C308.367 217.586 306.447 217.488 303.777 217.293C301.173 217.098 298.243 216.577 294.988 215.73C291.733 214.884 288.38 213.615 284.93 211.922C281.479 210.229 278.322 207.885 275.457 204.891C272.658 201.831 270.346 198.055 268.523 193.562C266.701 189.005 265.789 183.471 265.789 176.961V122.469C265.789 117.13 266.44 112.41 267.742 108.309C269.044 104.207 270.737 100.659 272.82 97.6641C274.969 94.6042 277.41 92.0651 280.145 90.0469C282.879 87.9635 285.678 86.2383 288.543 84.8711C295.184 81.7461 302.768 79.9557 311.297 79.5ZM373.016 156.062C373.016 150.073 373.829 144.995 375.457 140.828C377.085 136.661 379.168 133.178 381.707 130.379C384.311 127.579 387.176 125.398 390.301 123.836C393.491 122.273 396.616 121.102 399.676 120.32C402.736 119.539 405.568 119.051 408.172 118.855C410.841 118.66 412.924 118.562 414.422 118.562C415.919 118.562 417.97 118.66 420.574 118.855C423.178 119.051 425.945 119.539 428.875 120.32C431.87 121.102 434.865 122.273 437.859 123.836C440.919 125.398 443.654 127.579 446.062 130.379C448.536 133.178 450.555 136.661 452.117 140.828C453.68 144.995 454.461 150.073 454.461 156.062V180.281C454.461 186.271 453.68 191.349 452.117 195.516C450.555 199.682 448.536 203.165 446.062 205.965C443.654 208.764 440.919 210.945 437.859 212.508C434.865 214.07 431.87 215.242 428.875 216.023C425.945 216.805 423.178 217.293 420.574 217.488C417.97 217.684 415.919 217.781 414.422 217.781C412.924 217.781 410.841 217.684 408.172 217.488C405.568 217.293 402.736 216.805 399.676 216.023C396.616 215.242 393.491 214.07 390.301 212.508C387.176 210.945 384.311 208.764 381.707 205.965C379.168 203.165 377.085 199.682 375.457 195.516C373.829 191.349 373.016 186.271 373.016 180.281V156.062ZM403.094 187.117C403.159 189.005 403.615 190.665 404.461 192.098C405.177 193.4 406.284 194.572 407.781 195.613C409.344 196.59 411.557 197.078 414.422 197.078C417.156 197.078 419.24 196.59 420.672 195.613C422.169 194.572 423.276 193.4 423.992 192.098C424.773 190.665 425.229 189.005 425.359 187.117V151.766C425.229 149.812 424.773 148.022 423.992 146.395C423.276 145.092 422.169 143.888 420.672 142.781C419.24 141.609 417.156 141.023 414.422 141.023C411.557 141.023 409.344 141.609 407.781 142.781C406.284 143.888 405.177 145.092 404.461 146.395C403.615 148.022 403.159 149.812 403.094 151.766V187.117ZM477.117 141.219C477.117 138.484 477.247 135.815 477.508 133.211C477.833 130.607 478.517 128.296 479.559 126.277C480.6 124.194 482.098 122.534 484.051 121.297C486.004 119.995 488.641 119.344 491.961 119.344C495.281 119.344 497.918 119.995 499.871 121.297C501.824 122.534 503.322 124.194 504.363 126.277C505.405 128.296 506.056 130.607 506.316 133.211C506.642 135.815 506.805 138.484 506.805 141.219V195.125C506.805 197.859 506.642 200.561 506.316 203.23C506.056 205.835 505.405 208.178 504.363 210.262C503.322 212.28 501.824 213.908 499.871 215.145C497.918 216.382 495.281 217 491.961 217C488.641 217 486.004 216.382 484.051 215.145C482.098 213.908 480.6 212.28 479.559 210.262C478.517 208.178 477.833 205.835 477.508 203.23C477.247 200.561 477.117 197.859 477.117 195.125V141.219ZM507 95.125C507 100.138 505.698 103.882 503.094 106.355C500.49 108.764 496.844 109.969 492.156 109.969C487.469 109.969 483.823 108.764 481.219 106.355C478.615 103.882 477.312 100.138 477.312 95.125C477.312 89.9167 478.615 86.1406 481.219 83.7969C483.823 81.4531 487.469 80.2812 492.156 80.2812C497.169 80.2812 500.88 81.4531 503.289 83.7969C505.763 86.1406 507 89.9167 507 95.125ZM617.547 194.734C617.547 197.534 617.384 200.268 617.059 202.938C616.733 205.607 616.017 207.983 614.91 210.066C613.868 212.15 612.339 213.842 610.32 215.145C608.367 216.382 605.698 217 602.312 217C598.992 217 596.355 216.382 594.402 215.145C592.449 213.842 590.952 212.15 589.91 210.066C588.868 207.983 588.185 205.607 587.859 202.938C587.599 200.268 587.469 197.534 587.469 194.734V156.648C587.469 154.826 587.371 153.035 587.176 151.277C587.046 149.52 586.688 147.99 586.102 146.688C585.516 145.32 584.637 144.246 583.465 143.465C582.358 142.618 580.828 142.195 578.875 142.195C576.206 142.195 574.057 143.074 572.43 144.832C570.802 146.59 569.5 148.999 568.523 152.059C567.612 155.118 566.993 158.732 566.668 162.898C566.342 167 566.18 171.427 566.18 176.18V194.734C566.18 197.534 566.017 200.268 565.691 202.938C565.366 205.607 564.65 207.983 563.543 210.066C562.501 212.15 560.971 213.842 558.953 215.145C557 216.382 554.331 217 550.945 217C547.625 217 544.988 216.382 543.035 215.145C541.082 213.842 539.585 212.15 538.543 210.066C537.501 207.983 536.818 205.607 536.492 202.938C536.232 200.268 536.102 197.534 536.102 194.734V141.414C536.102 138.615 536.199 135.913 536.395 133.309C536.59 130.639 537.176 128.296 538.152 126.277C539.129 124.194 540.594 122.534 542.547 121.297C544.565 119.995 547.365 119.344 550.945 119.344C554.526 119.344 557.326 119.962 559.344 121.199C561.362 122.371 562.859 123.803 563.836 125.496C564.878 127.189 565.529 128.979 565.789 130.867C566.049 132.755 566.18 134.383 566.18 135.75C566.701 133.862 567.514 131.941 568.621 129.988C569.728 128.035 571.128 126.277 572.82 124.715C574.578 123.152 576.661 121.883 579.07 120.906C581.479 119.865 584.279 119.344 587.469 119.344C591.049 119.344 594.63 119.93 598.211 121.102C601.792 122.273 605.014 124.227 607.879 126.961C610.743 129.695 613.055 133.276 614.812 137.703C616.635 142.13 617.547 147.599 617.547 154.109V194.734ZM672.43 163.094V194.734C672.43 197.534 672.332 200.268 672.137 202.938C672.007 205.607 671.453 207.983 670.477 210.066C669.565 212.15 668.1 213.842 666.082 215.145C664.064 216.382 661.167 217 657.391 217C653.745 217 650.913 216.382 648.895 215.145C646.941 213.842 645.509 212.15 644.598 210.066C643.686 207.983 643.133 205.607 642.938 202.938C642.807 200.268 642.742 197.534 642.742 194.734V102.547C642.742 99.7474 642.807 97.013 642.938 94.3438C643.133 91.6745 643.686 89.2982 644.598 87.2148C645.509 85.1315 646.941 83.4714 648.895 82.2344C650.913 80.9323 653.745 80.2812 657.391 80.2812H689.617C697.69 80.6719 704.917 82.3646 711.297 85.3594C714.031 86.6615 716.668 88.2891 719.207 90.2422C721.811 92.1953 724.122 94.6042 726.141 97.4688C728.224 100.268 729.884 103.621 731.121 107.527C732.358 111.368 732.977 115.828 732.977 120.906C732.977 127.872 731.87 133.992 729.656 139.266C727.508 144.474 724.35 148.868 720.184 152.449C716.082 155.965 711.036 158.634 705.047 160.457C699.122 162.215 692.417 163.094 684.93 163.094H672.43ZM685.711 139.852C688.966 139.656 691.896 138.875 694.5 137.508C695.607 136.922 696.681 136.173 697.723 135.262C698.764 134.35 699.708 133.243 700.555 131.941C701.401 130.574 702.052 128.979 702.508 127.156C703.029 125.333 703.289 123.25 703.289 120.906C703.289 118.693 703.029 116.772 702.508 115.145C702.052 113.452 701.434 112.02 700.652 110.848C699.871 109.611 698.992 108.569 698.016 107.723C697.039 106.876 696.03 106.16 694.988 105.574C692.514 104.337 689.747 103.589 686.688 103.328H672.43V139.852H685.711ZM748.211 101.961C748.211 99.2266 748.341 96.5573 748.602 93.9531C748.927 91.349 749.611 89.0378 750.652 87.0195C751.694 85.0013 753.191 83.3737 755.145 82.1367C757.098 80.8997 759.734 80.2812 763.055 80.2812C766.44 80.2812 769.109 80.8997 771.062 82.1367C773.016 83.3737 774.48 85.0013 775.457 87.0195C776.499 89.0378 777.15 91.349 777.41 93.9531C777.736 96.5573 777.898 99.2266 777.898 101.961V195.125C777.898 197.859 777.736 200.561 777.41 203.23C777.15 205.835 776.499 208.178 775.457 210.262C774.48 212.28 773.016 213.908 771.062 215.145C769.109 216.382 766.44 217 763.055 217C759.734 217 757.098 216.382 755.145 215.145C753.191 213.908 751.694 212.28 750.652 210.262C749.611 208.178 748.927 205.835 748.602 203.23C748.341 200.561 748.211 197.859 748.211 195.125V101.961ZM803.289 141.609C803.289 138.81 803.452 136.076 803.777 133.406C804.103 130.737 804.786 128.361 805.828 126.277C806.935 124.194 808.465 122.534 810.418 121.297C812.436 119.995 815.138 119.344 818.523 119.344C821.844 119.344 824.48 119.995 826.434 121.297C828.387 122.534 829.884 124.194 830.926 126.277C831.967 128.361 832.618 130.737 832.879 133.406C833.204 136.076 833.367 138.81 833.367 141.609V179.695C833.367 181.583 833.432 183.406 833.562 185.164C833.758 186.857 834.148 188.387 834.734 189.754C835.32 191.056 836.167 192.13 837.273 192.977C838.445 193.758 840.008 194.148 841.961 194.148C844.565 194.148 846.681 193.27 848.309 191.512C850.001 189.754 851.303 187.345 852.215 184.285C853.191 181.225 853.842 177.645 854.168 173.543C854.493 169.376 854.656 164.917 854.656 160.164V141.609C854.656 138.81 854.819 136.076 855.145 133.406C855.47 130.737 856.154 128.361 857.195 126.277C858.302 124.194 859.832 122.534 861.785 121.297C863.803 119.995 866.505 119.344 869.891 119.344C873.211 119.344 875.848 119.995 877.801 121.297C879.754 122.534 881.251 124.194 882.293 126.277C883.335 128.361 883.986 130.737 884.246 133.406C884.572 136.076 884.734 138.81 884.734 141.609V194.93C884.734 197.729 884.637 200.464 884.441 203.133C884.246 205.737 883.66 208.081 882.684 210.164C881.707 212.182 880.21 213.842 878.191 215.145C876.238 216.382 873.471 217 869.891 217C866.31 217 863.51 216.414 861.492 215.242C859.474 214.005 857.944 212.54 856.902 210.848C855.926 209.155 855.307 207.365 855.047 205.477C854.786 203.589 854.656 201.961 854.656 200.594C854.135 202.482 853.322 204.402 852.215 206.355C851.108 208.309 849.676 210.066 847.918 211.629C846.225 213.191 844.174 214.493 841.766 215.535C839.357 216.512 836.557 217 833.367 217C829.786 217 826.206 216.414 822.625 215.242C819.044 214.07 815.822 212.117 812.957 209.383C810.092 206.648 807.749 203.068 805.926 198.641C804.168 194.214 803.289 188.745 803.289 182.234V141.609ZM986.883 219.93C986.883 225.789 986.069 230.737 984.441 234.773C982.879 238.81 980.861 242.163 978.387 244.832C975.913 247.501 973.146 249.585 970.086 251.082C967.091 252.579 964.129 253.686 961.199 254.402C958.335 255.184 955.698 255.639 953.289 255.77C950.88 255.965 949.057 256.062 947.82 256.062C943.198 256.062 938.576 255.737 933.953 255.086C929.331 254.435 925.099 253.23 921.258 251.473C917.482 249.715 914.324 247.339 911.785 244.344C909.311 241.349 907.911 237.508 907.586 232.82C907.586 232.039 907.716 231.16 907.977 230.184C908.237 229.207 908.823 228.263 909.734 227.352C910.646 226.505 912.013 225.757 913.836 225.105C915.659 224.52 918.133 224.227 921.258 224.227C925.034 224.227 927.931 224.52 929.949 225.105C931.967 225.757 933.465 226.505 934.441 227.352C935.418 228.263 936.036 229.207 936.297 230.184C936.622 231.225 936.948 232.169 937.273 233.016C937.794 234.383 938.803 235.327 940.301 235.848C941.863 236.434 943.979 236.727 946.648 236.727C949.057 236.727 950.945 236.173 952.312 235.066C953.745 233.96 954.819 232.625 955.535 231.062C956.251 229.565 956.707 228.003 956.902 226.375C957.098 224.812 957.195 223.51 957.195 222.469V200.594C956.609 202.547 955.763 204.5 954.656 206.453C953.615 208.406 952.247 210.164 950.555 211.727C948.862 213.289 946.811 214.559 944.402 215.535C942.059 216.512 939.292 217 936.102 217C932.521 217 928.94 216.414 925.359 215.242C921.779 214.07 918.523 212.15 915.594 209.48C912.729 206.746 910.385 203.165 908.562 198.738C906.74 194.311 905.828 188.81 905.828 182.234V153.914C905.828 147.469 906.74 142.065 908.562 137.703C910.385 133.276 912.729 129.695 915.594 126.961C918.523 124.227 921.779 122.273 925.359 121.102C928.94 119.93 932.521 119.344 936.102 119.344C939.292 119.344 942.059 119.865 944.402 120.906C946.811 121.883 948.862 123.152 950.555 124.715C952.247 126.277 953.615 128.035 954.656 129.988C955.763 131.941 956.609 133.862 957.195 135.75C957.195 134.448 957.293 132.853 957.488 130.965C957.749 129.077 958.367 127.286 959.344 125.594C960.32 123.836 961.818 122.371 963.836 121.199C965.854 119.962 968.654 119.344 972.234 119.344C975.75 119.344 978.484 119.995 980.438 121.297C982.391 122.534 983.855 124.194 984.832 126.277C985.809 128.361 986.395 130.737 986.59 133.406C986.785 136.01 986.883 138.68 986.883 141.414V219.93ZM936.102 180.086C936.102 181.779 936.167 183.471 936.297 185.164C936.427 186.857 936.785 188.387 937.371 189.754C937.957 191.056 938.803 192.13 939.91 192.977C941.082 193.758 942.677 194.148 944.695 194.148C947.234 194.148 949.318 193.335 950.945 191.707C952.573 190.079 953.842 188.094 954.754 185.75C955.665 183.341 956.284 180.835 956.609 178.23C957 175.561 957.195 173.185 957.195 171.102C957.13 166.154 956.902 161.857 956.512 158.211C956.186 154.565 955.568 151.57 954.656 149.227C953.745 146.818 952.475 145.06 950.848 143.953C949.285 142.781 947.234 142.195 944.695 142.195C942.677 142.195 941.082 142.618 939.91 143.465C938.803 144.246 937.957 145.32 937.371 146.688C936.785 148.055 936.427 149.585 936.297 151.277C936.167 152.97 936.102 154.695 936.102 156.453V180.086Z" fill="#324A5F"/>
</svg>
